<svg xmlns="http://www.w3.org/2000/svg" xmlns:xlink="http://www.w3.org/1999/xlink" width="211" height="36" viewBox="0 0 211 36">
    <defs>
        <path id="7m2kzw9d2a" d="M0 0L35.627 0 35.627 36 0 36z"/>
    </defs>
    <g fill="none" fill-rule="evenodd">
        <g>
            <g>
                <path fill="#CF8263" d="M91.176 29.414c.024-1.926-.037-3.858.1-5.776.115-1.623-.589-2.091-2.026-1.91-1.52.19-3.156-.483-4.552.63-.069-.155-.208-.37-.147-.46 1.48-2.222 3.686-1.145 5.61-1.173 1.512-.021 2.053 1.099 2.223 2.507.178 1.47-.5 3.23.61 4.352 1.112 1.125 2.85.39 4.298.596.669.095 1.298.241 1.83.682l.51.552h-8.456z" transform="translate(-135.000000, -30.000000) translate(135.000000, 30.000000)"/>
                <path fill="#D08162" d="M125.115 28.93l-.114.484h-21.389l.02-.554c.804-.762 1.823-.737 2.81-.743 5.299-.033 10.598-.04 15.897.004.984.007 2.01-.018 2.776.81" transform="translate(-135.000000, -30.000000) translate(135.000000, 30.000000)"/>
                <path fill="#CF8163" d="M156.836 29.414c.032-.167.023-.332-.028-.494.692-.75 1.62-.78 2.524-.79 5.116-.052 10.232-.05 15.347 0 .905.008 1.831.037 2.536.766l.015.518h-20.394z" transform="translate(-135.000000, -30.000000) translate(135.000000, 30.000000)"/>
                <path fill="#CE8366" d="M34.968 29.414c.24-.455.493-.897 1.057-1.003 2.323-.214 4.669-.759 6.89.489l.012.514h-7.96z" transform="translate(-135.000000, -30.000000) translate(135.000000, 30.000000)"/>
                <path fill="#CF8568" d="M61.331 29.414c.346-.336.512-.881 1.086-.95 2.334-.112 4.72-.984 6.947.481-.035.155-.06.312-.074.47H61.33z" transform="translate(-135.000000, -30.000000) translate(135.000000, 30.000000)"/>
                <path fill="#CF8365" d="M80.714 28.895l.016.519h-7.958c.213-.474.483-.89 1.03-1.018 2.33-.185 4.684-.748 6.912.5" transform="translate(-135.000000, -30.000000) translate(135.000000, 30.000000)"/>
                <path fill="#CE8366" d="M127.488 29.414c.236-.46.498-.893 1.059-1.002 2.323-.216 4.67-.76 6.891.489l.008.513h-7.958z" transform="translate(-135.000000, -30.000000) translate(135.000000, 30.000000)"/>
                <path fill="#CF8365" d="M188.585 28.835l.085.579h-7.46c-.056-.467.108-.785.592-.883 2.278-.29 4.569-.867 6.783.304" transform="translate(-135.000000, -30.000000) translate(135.000000, 30.000000)"/>
                <path fill="#CF8163" d="M194.64 29.414c.014-.163.001-.325-.041-.484 2.255-1.381 4.7-.656 7.08-.655.488.248.437.7.421 1.14h-7.46z" transform="translate(-135.000000, -30.000000) translate(135.000000, 30.000000)"/>
                <path fill="#EF5423" d="M125.115 28.93c-7.16-.022-14.321-.046-21.482-.07-1.138-.754-.73-1.74-.318-2.646 2.132-4.693 4.299-9.37 6.45-14.052.75-1.63 2.033-2.294 3.776-2.288 6.688.02 13.377.008 20.03.008.306.621-.106 1.036-.27 1.475-.673 1.814-1.324 2.956-3.92 2.503-3.449-.602-7.084-.026-10.627-.192-2.35-.11-2.435 1.83-3.293 3.117-.073.537.23.786.694.778 4.447-.074 8.9.266 13.341-.18.348.013.92-.23.606.54-.47 1.153-.876 2.338-1.429 3.449-.868 1.744-1.972-.007-2.975.05-3.634.21-7.287.066-10.933.094-1.225.009-2.898 2.027-2.773 3.198.083.775.645.634 1.095.62 4.53-.141 9.079.375 14-.425l-1.972 4.022M42.915 28.9c-2.292-.233-4.656.578-6.89-.49 2.83-4.635 4.796-9.703 6.97-14.653 1.243-2.832 2.897-4.058 6.048-3.942 6.176.226 12.366.067 18.945.067-.64 1.4-1.169 2.501-1.648 3.624-.23.536-.521.793-1.127.645-4.078-.99-8.226-.117-12.323-.463-2.316-.196-2.699 1.593-3.282 3.08-.469 1.196.667.869 1.187.86 4.448-.078 8.904.296 13.346-.264.052.171.165.338.127.451-.842 2.484-1.463 4.692-5.195 3.834-3.071-.705-6.43-.045-9.652-.185-1.605-.07-2.285.617-2.978 1.956-.996 1.923-1.098 4.493-3.528 5.48M135.438 28.901c-2.292-.236-4.657.575-6.892-.49 2.798-4.46 4.725-9.371 6.755-14.191 1.434-3.405 3.406-4.59 6.998-4.416 5.925.286 11.874.078 18.21.078-.643 1.4-1.174 2.502-1.65 3.626-.232.544-.532.787-1.13.64-3.998-.98-8.068-.085-12.08-.47-2.397-.23-2.93 1.49-3.548 3.092-.479 1.24.681.863 1.177.854 4.451-.08 8.91.32 13.75-.345-.669 1.547-1.23 2.875-1.817 4.192-.23.518-.542.578-1.167.447-4.254-.89-8.573-.166-12.855-.432-1.33-.082-1.567.874-2.09 1.727-1.177 1.922-1.155 4.646-3.66 5.688M201.68 28.276c-2.255 1.396-4.738.247-7.082.654-1.49-.736-.662-2.448-1.553-3.725-1.705.954-3.08 2.294-4.46 3.63-2.263-.053-4.554.501-6.784-.304 2.887-2.362 5.75-4.754 8.673-7.067 1.03-.816 1.365-1.651 1.11-2.999-.524-2.775-.834-5.592-1.259-8.579 2.03 0 4.072-.018 6.112.007 1.254.016 1.99.64 2.104 1.964.063.733.046 1.507.869 2.471 2.949-3.873 6.936-5.171 11.59-4.515-2.467 3.046-5.77 5.115-8.755 7.542-1.492 1.213-1.976 2.403-1.578 4.26.47 2.192.686 4.438 1.012 6.66M69.364 28.946c-2.306-.313-4.689.52-6.947-.482 2.488-3.39 3.64-7.461 5.534-11.154.076-.148.16-.292.232-.442 3.629-7.635 1.66-7.123 11.404-6.907-3.073 5.209-5.233 10.87-7.854 16.302-.543 1.126-.98 2.33-2.37 2.683" transform="translate(-135.000000, -30.000000) translate(135.000000, 30.000000)"/>
                <path fill="#DA7F59" d="M129.496 17.383c-1.773 1.066-3.711.408-5.567.498-2.476.12-4.962.057-7.442.007-.582-.011-1.817.332-1.026-1.103.406.94 1.249.647 1.937.648 4.032.005 8.065-.03 12.098-.05" transform="translate(-135.000000, -30.000000) translate(135.000000, 30.000000)"/>
                <path fill="#EF5423" d="M95.139 17.554c-1.2.192-2.455.037-3.685.037v.07c-.493 0-1.019.113-1.472-.023-.897-.27-2.326.853-2.659-.676-.304-1.4 1.676-3.24 3.173-3.257 1.479-.015 2.96-.063 4.434.021.8.045 2.15-.515 2.2.813.047 1.271-.399 2.76-1.991 3.015m7.782-7.664c-5.453-.027-10.913.137-16.359-.066-2.947-.11-4.497 1.066-5.67 3.714-2.224 5.016-4.22 10.154-7.09 14.859 2.239 1.096 4.613.263 6.912.498 2.69-1.328 2.689-4.338 3.984-6.537.14-.284.23-.774.424-.82 2.017-.473 4.22-.716 6.037.032 1.3.535.376 2.574.56 3.926.078.572.065 1.17.004 1.745-.141 1.348.49 1.74 1.729 1.687 1.888-.08 3.78-.05 5.67-.065-.06-.241-.083-.5-.186-.721-.783-1.682-.456-3.476-.304-5.176.128-1.444 1.822-.563 2.656-1.209.752-.582 1.322-1.238 1.709-2.088.86-1.892 1.734-3.778 2.573-5.68 1.226-2.777.397-4.084-2.649-4.099M176.494 15.666c-1.29 2.704-2.578 5.414-3.72 8.184-.898 2.175-2.69 1.433-4.05 1.586-.679 0-1.176-.027-1.669.005-1.762.114-2.282-.505-1.443-2.206 1.138-2.312 2.265-4.64 3.212-7.037.747-1.89 1.847-2.838 3.92-2.51.806.128 1.648.043 2.473.018 1.49-.045 1.982.479 1.277 1.96m7.2-5.767c-5.803-.05-11.605-.02-17.408-.009-1.43.003-2.646.54-3.272 1.883-2.296 4.917-4.529 9.864-6.796 14.795-.444.965-.42 1.777.59 2.352l20.407-.024c1.114-.237 1.585-1.118 2.012-2.048 2.129-4.633 4.284-9.254 6.379-13.902.917-2.034.312-3.027-1.913-3.047" transform="translate(-135.000000, -30.000000) translate(135.000000, 30.000000)"/>
                <g transform="translate(-135.000000, -30.000000) translate(135.000000, 30.000000)">
                    <mask id="fkj717w84b" fill="#fff">
                        <use xlink:href="#7m2kzw9d2a"/>
                    </mask>
                    <path fill="#EF5323" d="M35.627 18c0 9.941-7.976 18-17.814 18C7.975 36 0 27.941 0 18S7.975 0 17.813 0s17.814 8.059 17.814 18" mask="url(#fkj717w84b)"/>
                </g>
                <path fill="#030403" d="M19.619 24.207c.643-2.075 1.17-3.573 3.5-3.825-.525 1.894-1.398 3.061-3.5 3.825m-6.642-3.825c2.38.274 2.971 1.739 3.62 3.634-2.117-.415-2.824-1.822-3.62-3.634m14.64-4.441c-1.152-.943-1.23-2.103-.896-3.593.46-2.042 1.057-4.158.397-6.858-1.283 1.382-2.399 2.36-3.24 3.538-1.449 2.03-2.927 3.539-5.628 2.098-.774-.413-1.684.033-2.4.348-1.314.576-2.054.087-2.934-.868-1.465-1.59-2.596-3.566-4.67-4.786-.457 2.653.121 4.927.594 7.204.12.58.448 1.252-.008 1.672-2.242 2.064-2.908 5.021-4.37 7.69 5.873.014 9.084 3.685 11.46 8.482.393.791.525 1.698 1.786 1.726 1.27.029 1.432-.855 1.816-1.658 2.318-4.836 5.551-8.463 11.64-8.578-1.927-1.977-1.566-4.798-3.547-6.417" transform="translate(-135.000000, -30.000000) translate(135.000000, 30.000000)"/>
            </g>
        </g>
    </g>
</svg>
